<?xml version="1.0" encoding="UTF-8"?>
<svg id="Layer_1" data-name="Layer 1" xmlns="http://www.w3.org/2000/svg" viewBox="0 0 867.45 463.37">
  <path d="M415.48,238.27c8.79-9.25,17.69-18.4,26.31-27.8,2.88-3.14,5.53-6.71,7.41-10.52,3.28-6.67,1.85-13.46-.27-20.35-2.91-9.48-6.24-19.03-7.41-28.79-2.22-18.5,5.74-34.32,15.89-49.1,3.36-4.9,7.07-9.55,11.27-15.2,3.33,17.23,7.38,33.47,9.39,49.97,1.99,16.34-4.16,30.97-13.83,44.14-3.7,5.04-7.07,10.32-10.6,15.49,.5,.4,.99,.8,1.49,1.2,6.59-7.56,13.31-15.03,19.74-22.73,4.69-5.61,9.53-11.2,13.41-17.37,8.09-12.85,12.37-26.6,8.5-42.09-3.07-12.29-5.37-24.79-2.31-37.46,3.84-15.93,13.23-28.19,26.53-37.36,6.5-4.48,13.65-8.02,21.25-12.41-1.11,8.85-2.13,16.55-3.02,24.27-1.16,10.07-1.84,20.21-3.38,30.23-2.45,16.03-12.06,28.1-22.89,39.39-5.26,5.47-10.21,11.2-12.2,17.14,13.42-13.06,27.68-27.04,42.09-40.88,2.86-2.75,6.09-5.21,9.44-7.36,10.17-6.54,14.15-16.25,15.01-27.79,.92-12.3,2.51-24.4,9.55-35.12,10.68-16.28,25.75-24.95,44.97-26.79,3.41-.33,6.82-.71,9.35-.98-3.36,10.13-6.66,20.14-10,30.14-5.7,17.06-15.82,30.14-32.98,37.09-5.06,2.05-10.02,4.48-14.69,7.29-3.45,2.07-6.36,5.03-9.5,7.59l1.63,1.88c3.86-1.98,7.68-4.05,11.59-5.94,15.33-7.4,31.45-12.34,48.25-15.03,10.8-1.73,19.06-7.03,24.91-16.44,8.24-13.26,18.74-24.19,33.63-30.07,13.92-5.5,28.28-6.25,43.8-3.81-6.84,9.12-12.98,17.94-19.77,26.24-9.87,12.06-23.53,16.06-38.5,16.99-7.46,.46-14.88,1.38-22.32,2.17-.88,.09-1.71,.69-2.43,1.73,4.15-.32,8.32-.43,12.44-.98,13.6-1.83,26.96-.16,39.94,3.63,13,3.79,24.55,1.85,35.23-6.23,7.79-5.89,16.21-10.12,26.12-11.41,9.76-1.27,18.86,.76,27.7,4.34,15.59,6.32,28.38,16.79,41.43,28.27-17.17,3.9-33.28,10.36-50.44,7.37-8.49-1.48-16.61-5.27-24.8-8.29-7.61-2.8-14.97-6.3-22.66-8.79-3.59-1.16-7.72-.64-11.61-.88-.09,.4-.17,.79-.26,1.19,1.22,.54,2.43,1.12,3.67,1.61,15.91,6.25,30.66,14.59,43.53,25.82,10.06,8.78,21.26,13.89,34.64,14.39,22,.82,37.8,12.24,49.7,29.84,6.75,9.97,10.95,21.04,13.08,33.28-11.14-3.91-21.97-7.42-32.57-11.52-11.51-4.44-20.34-12.2-27.01-22.7-4.62-7.27-9.85-14.19-15.22-20.95-2.25-2.83-5.55-4.82-8.6-6.73,6.53,9.45,13.57,18.6,19.43,28.45,4.54,7.64,7.65,16.14,11.32,24.29,1.49,3.32,2.88,6.69,4.17,10.09,2.71,7.18,7.78,11.7,15.02,14.14,10.96,3.69,20.08,9.98,27.34,19.13,10.73,13.53,12.23,29.13,10.41,45.37-.77,6.85-2.82,13.55-4.6,21.72-11.35-15.49-26.82-26.28-32.36-44.11-3.37-10.87-4.9-22.29-7.64-33.37-1.04-4.22-3.14-8.18-4.75-12.26-.42,.13-.83,.26-1.25,.38,1.09,6.33,2.5,12.63,3.19,19,1.19,10.9,2.39,21.83,2.77,32.78,.51,14.79,3.28,28.64,12.62,40.61,19.88,25.47,14.42,53.99-.81,75.85-1.22,1.76-2.49,3.49-4.16,5.82-5.43-16.25-14.01-31.09-13.19-48.28,.42-8.89,2.73-17.67,3.99-26.53,.75-5.25,1.25-10.55,1.61-15.84,.12-1.7-.57-3.45-1.32-5.18-2.61,21.37-10.01,41.04-19.41,60.11-4.83,9.8-5.34,19.98-1.82,30.46,5.75,17.06,5.28,33.66-4.61,49.3-7.26,11.49-17.87,19.38-29.96,27.98,1.42-15.04,2.45-28.76,4.09-42.4,1.21-9.99,6.55-18.31,12.27-26.36,5.27-7.42,10.17-15.08,11.12-24.7-.54,.78-1.14,1.53-1.62,2.35-8.48,14.27-19.13,26.78-31.2,38.1-9.69,9.08-15.8,19.85-17.42,33.21-2.65,21.78-15.24,35.86-35.14,43.9-5.02,2.03-10.2,3.67-16.32,5.84,5.13-17.16,5.84-35.07,20.17-46.94,5.96-4.94,12.97-8.6,19.4-12.98,4.47-3.05,8.77-6.35,13.14-9.54l-.74-1.17c-.86,.43-1.77,.79-2.57,1.31-13.45,8.8-28.23,14.54-43.44,19.47-12.28,3.98-22.18,10.9-27.45,23.42-7.54,17.89-21.99,26.59-40.64,28.42-8.95,.88-18.06,.15-27.1,.15,4.95-6.89,9.69-13.66,14.61-20.3,8.77-11.82,21.42-16.87,35.22-19.7,6.01-1.23,12.16-1.78,18.13-3.17,3.69-.86,7.15-2.71,10.49-4.84-18.69,3.44-37.44,2.65-56.14,3.14-12.25,.32-24.24,3.27-34.31,10.63-19.17,14-39.28,13.01-60.08,4.92-5.54-2.16-10.94-4.69-17.67-7.59,13.84-6.51,24.28-17.14,39.17-19.51,10.29-1.63,19.76,.91,29.07,4.72,7.88,3.22,15.86,5.9,24.53,5.64,1.57-.05,3.13-.33,4.73-1.02-21.39-4.39-41.2-12.78-60.94-21.49-4.18-1.84-8.93-3.18-13.44-3.27-5.87-.12-12.06,.35-17.59,2.15-14.34,4.66-27.69,2.72-40.13-4.98-10.29-6.36-20-13.65-30.81-21.1,16.11-4.37,31.01-8.92,46.88-4.35,8.41,2.43,15.13,7.42,21.48,13.14,5.41,4.87,10.94,9.58,18.82,10.37-6.47-5.34-12.88-10.75-19.42-16-22.45-18.01-40.23-40.14-56.33-63.75-8.31-12.18-16.56-24.4-25.23-37.17,2.02-3.16,4.67-7.32,8.16-12.79,4.22,8.11,8.05,15.32,11.75,22.6,16.62,32.67,37.92,61.75,66.04,85.51,6.37,5.39,13.18,10.26,19.78,15.37,.34-.43,.68-.86,1.03-1.29-5.69-4.68-11.25-9.51-17.08-14-17.43-13.42-26.6-30.94-27.23-53.01-.16-5.74-1.2-11.45-1.91-17.79,8.31,6.44,16.57,12.07,23.92,18.7,13.07,11.79,17.25,27.62,17.94,44.5,.49,11.89,6.16,20.69,15.64,26.9,19.32,12.67,40.78,19.72,63.6,22.81,1.64,.22,3.27,.57,4.92,.76,1.47,.17,2.96,.19,4.69-.56-7.13-2.41-14.11-5.45-21.41-7.11-27.34-6.22-39.32-24.56-40.32-50.77-.11-2.97-.58-5.93-.94-9.39,22.46,10.85,44.25,21.63,52,47.94,2.85,9.68,8.86,16.96,19.2,18.94,6.97,1.33,14.21,2.19,21.28,1.91,20.02-.79,39.5-4.66,58.14-12.26,.58-.23,1.13-.52,1.43-1.98-7.15,1.3-14.4,2.19-21.43,3.97-15.76,4-30.68,3.26-44.11-6.84-8.81-6.63-14.37-15.96-20.65-25.75,16.38,2.44,32.77-1.57,47.79,5.19,8.08,3.64,15.78,8.42,22.97,13.62,8.05,5.82,16.08,7.56,25.68,4.75,18.32-5.38,32.31-16.77,44.23-31,6.64-7.92,12.46-16.52,18.66-24.82-.83-.74-1.66-1.49-2.49-2.23-6.92,7.71-13.51,15.75-20.84,23.04-9.05,9-20.03,14.48-33.15,13.42-5.88-.47-11.78-1.98-17.41-3.82-6.91-2.25-13.54-5.33-21.63-8.59,17.5-7.61,31.4-19.97,49.61-22.63,6.94-1.01,14.29-.39,21.31,.54,16.88,2.25,22.43,.42,32.22-15.11,10.44-16.56,15.26-35.19,18.13-54.35,.95-6.34,1.42-12.75,2.11-19.13l-1.27-.28c-1.62,5.62-2.91,11.36-4.91,16.83-3.51,9.61-6.73,19.42-11.36,28.49-7.28,14.24-20.28,20.37-35.66,22.14-6.59,.76-13.19,1.51-21.26,2.43,6.46-9.86,11.98-18.82,18.04-27.4,8.24-11.65,19.02-20.41,32.19-26.01,15.77-6.7,23.05-18.38,22.52-35.6-.98-32.42-10.52-62.12-26.87-89.83-.56,.16-1.13,.32-1.69,.47,2.37,8.12,4.6,16.29,7.15,24.36,2.87,9.11,7.52,17.94,8.73,27.23,2.32,17.81-5.63,32.6-17.38,45.52-3.12,3.43-6.19,6.91-10.03,11.2-4.7-27.34-9.99-52.75,3.57-77.9,12.6-23.37,8.48-42.78-11.53-60.45-16.07-14.19-34.36-24.92-54.47-32.46-.41-.15-.9-.07-1.94-.14,9.83,7.4,19.42,14.19,28.53,21.58,15.83,12.84,22.55,29.52,19.75,49.86-1.44,10.44-2.84,20.89-4.46,32.81-12.26-16.57-28.81-28.67-32.7-48.89-1.6-8.32-1.15-17.2-.53-25.75,1.01-13.9-4-23.24-16.79-29.11-12.85-5.91-26.5-7.19-40.4-7.09-17.22,.13-34.03,3.02-50.62,7.42-.92,.24-1.78,.72-2.66,1.09,.03,.42,.06,.84,.09,1.26,8.5,0,17.03,.5,25.48-.1,17.87-1.27,33.85,2.23,45.84,16.62,8.09,9.71,11.05,21.78,14.49,33.57,.45,1.55,.7,3.15,.99,4.46-11.2-2.71-22.27-5.28-33.28-8.09-14.83-3.79-25.7-12.66-32.87-26.16-1.25-2.35-2.52-4.69-3.93-6.94-6.06-9.67-13.89-12.87-25.09-10.49-19.47,4.15-35.61,14.64-50.04,27.61-9.47,8.5-17.57,18.53-26.33,27.83-1.22,1.3-2.74,2.32-4.12,3.46,.26,.38,.53,.76,.79,1.14,5-3.68,9.87-7.55,15.02-11,7.43-4.98,14.64-10.56,22.7-14.26,15.95-7.32,31.97-5.73,47.41,2.46,4.08,2.16,8.25,4.17,13.04,6.58-7.66,4.45-15.01,9.03-22.66,13.05-5.55,2.92-11.34,5.6-17.3,7.51-10.41,3.34-20.99,2.93-31.35-.64-14.98-5.16-27.74-2.01-38.39,9.76-5.14,5.68-10.85,10.9-15.5,16.95-10.64,13.83-20.81,28.01-31.09,42.11-1.08,1.48-1.64,3.35-2.44,5.04,.5,.35,.99,.7,1.49,1.05,4.16-4.95,8.43-9.82,12.44-14.88,4.74-5.98,8.77-12.58,13.95-18.13,10.92-11.69,25.31-16.59,40.69-19.02,8.15-1.29,16.33-2.44,24.84-3.7-12.88,25.12-30.64,43.83-60.16,47.59-19.43,2.48-33.76,11.76-43.95,28.87-16.84,28.29-34.85,55.87-55.35,81.72-27.46,34.64-57.69,66.29-96.27,88.86-24.64,14.41-50.98,23.76-79.52,26.68-63.56,6.51-117.66-13.75-162.38-58.64-27.21-27.31-43.59-61.11-51.08-98.65-12.88-64.57,2.24-123.17,42.19-174.95,29.96-38.84,69.77-62.63,118.6-69.53,44.13-6.24,85.19,3.9,123.18,26.68,29.48,17.67,53.93,41.15,75.36,67.76,12.19,15.14,23.61,30.9,35.17,46.54,2.68,3.63,4.49,7.91,5.82,12.43-7.68-8.17-15.37-16.34-23.05-24.51,12.18,16.69,25.89,32.28,33.72,51.9-3.58-4.61-7.15-9.22-10.73-13.83-.22,.12-.43,.23-.65,.35,3.44,6.02,6.84,12.07,10.35,18.05,1.76,3,3.85,5.82,5.57,8.85,.63,1.1,.6,2.58-.22,4.26l-21.86-20.37-.66,.43c2,2.53,3.94,5.11,6,7.59,3.83,4.61,7.8,9.1,11.51,13.79,.63,.8,.25,2.4,.34,3.63-3.01-2.7-6.02-5.41-9.04-8.11-.14,.13-.29,.27-.43,.4,2.41,3.53,4.82,7.05,7.38,10.79,.91-1.02,1.66-1.86,2.41-2.7ZM86.5,93.28c1.22-.85,2.48-1.63,3.64-2.55,17.58-14.02,36.87-24.96,58.71-30.56,11.42-2.93,23.25-4.29,33.93-6.2-13.09-.02-26.97,1.76-40.49,6.04-21.2,6.7-39.92,17.7-56.28,32.73-5.74,5.37-11.49,10.73-17.23,16.1,.33,.33,.67,.67,1,1,5.57-5.52,11.15-11.04,16.72-16.56Zm-25.05,261.38c-4.56-5.81-9.12-11.62-13.68-17.44-.25,.19-.5,.37-.76,.56,2.63,4.05,5.26,8.09,7.89,12.14-12.36-12.06-22.27-25.93-29.55-41.54-13.93-29.86-17.03-61.46-14.3-93.91,.38-4.57,.67-9.15,1-13.72-22.13,108.73,54.49,183.52,126.01,203.85-.15-.27-.22-.67-.43-.75-4.29-1.72-8.64-3.32-12.9-5.12-24.17-10.26-45.34-24.85-63.28-44.07Zm272.12-40.36c.23,.26,.47,.51,.7,.77,23.33-21.76,46.65-43.51,68.93-64.29-19.19-19.89-38.08-39.47-55.85-57.89,10.64,20.02,31.31,34.45,42.45,56.12,1.39,2.71,3.7,4.94,5.58,7.4-.35,.32-.7,.64-1.05,.96-1.77-1.37-3.7-2.58-5.29-4.15-23.15-22.78-46.25-45.61-69.38-68.41-17.17-16.94-33.68-34.59-53.95-48.1-17.83-11.88-37.13-19.05-58.66-19.67-27.49-.79-51.96,8.07-73.94,23.99-37.05,26.84-49.8,63.66-42.99,107.99,4.36,28.38,21.05,49.02,43.09,65.85,9.85,7.52,20.3,14.24,30.48,21.32-.04,.15-.09,.3-.13,.45-11.41-5.59-22.82-11.18-33.86-16.59,23.75,20.17,51.43,30.49,83.12,28.48,28.35-1.8,55.05-10,80.14-23.28,11.23-5.94,22.22-12.33,33.31-18.52-15.12,14.93-32.34,26.76-51.36,36.01,29.33-11.87,52.19-33.36,78.06-52.67-6.99,8.73-13.18,16.47-19.38,24.22ZM49.66,150.5c-21.63,40.44-22.13,82.52-9.9,125.6-10.25-42.92-9.17-84.96,9.9-125.6ZM782.18,67.65c-15.73-5.56-34.74-7.32-51.2-4.55,16.08,1.43,35.06,3.12,51.2,4.55Zm-267.45,7.68c-.51-.17-1.02-.35-1.53-.52l-11.62,52.99c.59,.13,1.18,.26,1.76,.39,3.8-17.62,7.59-35.24,11.39-52.86Zm271.87,38.21c13.64,8.99,27.27,17.99,40.91,26.98,.27-.41,.53-.83,.8-1.24-13.38-9.41-26.07-19.91-41.7-25.73Zm-332.05,76.92c5.81-16.64,3.04-34.35,2.86-51.86-.96,17.42-1.92,34.84-2.86,51.86Zm396.17,38.83c.11-9.96-11.04-25.75-24.55-34.67,8.04,11.66,20.67,20.07,24.55,34.67Zm-177.23,193.88c-.4-.47-.8-.95-1.2-1.42-11.5,8.28-22.99,16.57-34.49,24.85,.26,.38,.53,.76,.79,1.14,11.63-8.19,23.27-16.38,34.9-24.57Zm-120.87-.78c0,.5,0,1,0,1.49,15.27-.74,30.55-1.48,45.82-2.22-.03-.55-.06-1.09-.09-1.64-15.24,.79-30.48,1.58-45.73,2.37ZM684.29,33.85l-.88-1.37c-11.63,7.6-23.26,15.19-34.89,22.79l.95,1.48c11.6-7.63,23.21-15.26,34.81-22.9Zm-160.71,355.31c.2-.61,.39-1.22,.59-1.83-13.12-4.22-26.25-8.44-39.37-12.66-.14,.44-.28,.87-.41,1.31,13.06,4.39,26.13,8.79,39.19,13.18Zm94.68,14.54c-11.45-10.05-22.19-19.47-33.17-29.1,8.67,12.3,19.88,21.17,33.17,29.1Zm-49.25-330.47c.45,.25,.91,.51,1.36,.76,6.97-12.45,13.95-24.89,20.92-37.34-.48-.27-.97-.54-1.45-.81-6.94,12.46-13.88,24.93-20.83,37.39Zm203.03,266.65c-11.48,3.01-23.76,6.22-34.77,9.11,12.38,.75,25.84-2.73,34.77-9.11Zm-47.38-249.44c3.39,7.41,7.41,14.61,10,22.29,2.54,7.53,3.63,15.54,5.52,24.09-.24-17.61-5.58-32.74-15.52-46.38Zm-215.7,96.91c-.35-.44-.71-.88-1.06-1.31-11.63,7.56-23.26,15.12-34.89,22.68,.27,.41,.53,.83,.8,1.24,11.72-7.54,23.43-15.07,35.15-22.61Zm324.12,129.74c1.03-9.45-2.8-35.56-6.62-43.12,2.24,14.57,4.56,29.68,6.62,43.12Zm-253.31-191.99c-14.47-1.12-28.82,4.26-43.46,7.88,14.69-2.66,29.39-5.32,43.46-7.88Zm208.21,34.38c-.35-.02-.7-.03-1.05-.05-1,13.62-1.99,27.24-2.99,40.86l1.4,.09c.88-13.63,1.76-27.26,2.65-40.9Zm-2.53,227.22c.42,.08,.84,.15,1.26,.23,2.34-12.57,4.68-25.14,7.03-37.71-.38-.07-.77-.14-1.15-.21-2.38,12.56-4.75,25.13-7.13,37.69ZM435.51,241.78c-.42-.34-.83-.67-1.25-1.01-5.81,8.17-11.62,16.34-17.43,24.51,.43,.3,.85,.6,1.28,.9,5.8-8.13,11.6-16.27,17.4-24.4Zm263.78,152.74c.23-.35,.45-.71,.68-1.06-10.64-3.1-21.27-6.19-31.91-9.29-.12,.42-.24,.84-.36,1.27,10.53,3.03,21.06,6.06,31.59,9.08Zm-328.29-93.95c-.23-.25-.46-.5-.69-.75-6.01,6.85-12.01,13.7-15.1,17.23,3.23-3.37,9.51-9.92,15.8-16.48Zm349.89,123.58c.4,.25,.8,.5,1.2,.74,5.84-8.04,11.68-16.09,17.52-24.13-.41-.29-.82-.58-1.22-.86-5.83,8.08-11.67,16.17-17.5,24.25Zm-207.81-93.24c-.4,.12-.8,.25-1.19,.37,3.75,8.23,7.5,16.46,11.25,24.7,.41-.19,.82-.37,1.23-.56-3.76-8.17-7.52-16.34-11.28-24.51Zm-464.6,31.62c.12-.09,.24-.19,.37-.28l17.13,17.4c-.09,.08-.18,.16-.26,.24-5.74-5.79-11.49-11.57-17.23-17.36ZM153.99,91.85c-7.67,.16-14.46,3.12-20.92,7.16,6.97-2.39,13.95-4.78,20.92-7.16Zm642.54,179.25c.06,.04,.12,.07,.18,.11-4.59,4.23-9.17,8.45-13.76,12.68,.07,.06,.13,.12,.2,.18,4.46-4.32,8.92-8.65,13.38-12.97Z"/>
</svg>